<svg xmlns="http://www.w3.org/2000/svg" viewBox="0 0 512 512">
  <defs>
    <linearGradient id="bg" x1="0%" y1="0%" x2="100%" y2="100%">
      <stop offset="0%" style="stop-color:#7c5cbf"/>
      <stop offset="50%" style="stop-color:#e8458c"/>
      <stop offset="100%" style="stop-color:#00d4c8"/>
    </linearGradient>
  </defs>
  <rect width="512" height="512" rx="110" fill="url(#bg)"/>
  <!-- Calendar grid lines -->
  <rect x="100" y="140" width="312" height="260" rx="20" fill="rgba(255,255,255,0.12)"/>
  <rect x="100" y="140" width="312" height="60" rx="20" fill="rgba(255,255,255,0.2)"/>
  <!-- Month label dots -->
  <circle cx="160" cy="170" r="8" fill="rgba(255,255,255,0.9)"/>
  <circle cx="256" cy="170" r="8" fill="rgba(255,255,255,0.9)"/>
  <circle cx="352" cy="170" r="8" fill="rgba(255,255,255,0.9)"/>
  <!-- Calendar dots -->
  <circle cx="145" cy="240" r="10" fill="rgba(255,255,255,0.5)"/>
  <circle cx="195" cy="240" r="10" fill="rgba(255,255,255,0.5)"/>
  <circle cx="245" cy="240" r="10" fill="white"/>
  <circle cx="295" cy="240" r="10" fill="rgba(255,255,255,0.5)"/>
  <circle cx="345" cy="240" r="10" fill="rgba(255,255,255,0.5)"/>
  <circle cx="395" cy="240" r="10" fill="rgba(255,255,255,0.5)"/>
  <circle cx="145" cy="290" r="10" fill="rgba(255,255,255,0.5)"/>
  <circle cx="195" cy="290" r="10" fill="rgba(255,255,255,0.5)"/>
  <circle cx="245" cy="290" r="10" fill="rgba(255,255,255,0.5)"/>
  <circle cx="295" cy="290" r="10" fill="white"/>
  <circle cx="345" cy="290" r="10" fill="rgba(255,255,255,0.5)"/>
  <circle cx="395" cy="290" r="10" fill="rgba(255,255,255,0.5)"/>
  <circle cx="145" cy="340" r="10" fill="rgba(255,255,255,0.5)"/>
  <circle cx="195" cy="340" r="10" fill="rgba(255,255,255,0.5)"/>
  <circle cx="245" cy="340" r="10" fill="rgba(255,255,255,0.5)"/>
  <circle cx="295" cy="340" r="10" fill="rgba(255,255,255,0.5)"/>
  <circle cx="345" cy="340" r="10" fill="rgba(255,255,255,0.9)"/>
  <circle cx="395" cy="340" r="10" fill="rgba(255,255,255,0.5)"/>
  <!-- Clock icon bottom right -->
  <circle cx="390" cy="390" r="55" fill="#a07df5" opacity="0.9"/>
  <circle cx="390" cy="390" r="42" fill="none" stroke="white" stroke-width="5"/>
  <line x1="390" y1="390" x2="390" y2="358" stroke="white" stroke-width="5" stroke-linecap="round"/>
  <line x1="390" y1="390" x2="410" y2="400" stroke="white" stroke-width="5" stroke-linecap="round"/>
</svg>